<?xml version="1.0" encoding="UTF-8"?>
<svg xmlns="http://www.w3.org/2000/svg" viewBox="-110.00 -110.00 370.00 306.60" width="370" height="307"><defs><marker id="movement-arrowhead" markerUnits="userSpaceOnUse" markerWidth="16" markerHeight="16" refX="12" refY="8" orient="auto-start-reverse"><path d="M0,0 L16,8 L0,16 Z" fill="#6b2c2c" /></marker></defs><rect x="-110.00" y="-110.00" width="370.00" height="306.60" fill="#f2eee1" /><polygon points="50.00,0.00 25.00,43.30 -25.00,43.30 -50.00,0.00 -25.00,-43.30 25.00,-43.30" fill="#f2eee1" stroke="#8b7355" stroke-width="2" /><polygon points="125.00,43.30 100.00,86.60 50.00,86.60 25.00,43.30 50.00,0.00 100.00,0.00" fill="#f2eee1" stroke="#8b7355" stroke-width="2" /><polygon points="200.00,86.60 175.00,129.90 125.00,129.90 100.00,86.60 125.00,43.30 175.00,43.30" fill="#333a16" stroke="#8b7355" stroke-width="2" /><path d="M 0.00,0.00 L 75.00,43.30 L 150.00,86.60" fill="none" stroke="#6b2c2c" stroke-width="4" marker-end="url(#movement-arrowhead)" /><text x="37.50" y="11.65" fill="#2b2b24" font-size="16" text-anchor="middle">1</text><text x="112.50" y="54.95" fill="#2b2b24" font-size="16" text-anchor="middle">2</text><polygon points="27.50,0.00 13.75,23.82 -13.75,23.82 -27.50,0.00 -13.75,-23.82 13.75,-23.82" fill="#4b5320" stroke="#fbf8f0" stroke-width="2" /><text x="0.00" y="5.00" fill="#fbf8f0" font-size="14" text-anchor="middle">GREN</text></svg>